<?xml version='1.0' encoding='iso-8859-1'?>
<!DOCTYPE svg PUBLIC '-//W3C//DTD SVG 1.1//EN' 'http://www.w3.org/Graphics/SVG/1.1/DTD/svg11.dtd'>
<!-- Uploaded to: SVG Repo, www.svgrepo.com, Generator: SVG Repo Mixer Tools -->
<svg fill="#000000" height="800px" width="800px" version="1.1" xmlns="http://www.w3.org/2000/svg" viewBox="0 0 308.015 308.015" xmlns:xlink="http://www.w3.org/1999/xlink" enable-background="new 0 0 308.015 308.015">
  <g>
    <path d="m258.523,286.593l-52.54-110.981c-2.863,12.666-8.334,24.806-16.505,35.24l41.93,88.576c3.545,7.489 12.491,10.685 19.976,7.14 7.487-3.544 10.684-12.488 7.139-19.975z"/>
    <path d="m157.195,234.922c-7.22,2.65-14.842,4.039-22.674,4.039-11.965,0-23.898-3.282-34.636-9.83l5.6,23.07c1.627,6.699 8.375,10.827 15.097,9.198 5.049-1.226 8.629-5.359 9.397-10.19l9.51,44.909c1.717,8.106 9.677,13.284 17.782,11.567 8.105-1.717 13.283-9.678 11.567-17.782l-11.643-54.981z"/>
    <path d="m156.994,70.34c-2.094,0-4.094,0.379-5.961,1.041 0.497,0.129 0.995,0.249 1.489,0.39 26.022,7.404 48.065,31.658 54.182,64.286v-47.857c0-9.864-7.996-17.86-17.86-17.86h-31.85z"/>
    <path d="m90.423,85.424l-17.727-73.162c-1.629-6.708-8.381-10.827-15.096-9.198-6.708,1.629-10.826,8.388-9.198,15.097l12.966,53.41c-3.889,0.491-7.49,2.789-9.475,6.509-3.25,6.091-0.946,13.663 5.145,16.912l11.506,6.138 2.211,9.11c5.067-9.723 11.65-18.022 19.668-24.816z"/>
    <path d="m134.521,84.256c-32.512,0-58.869,31.274-58.869,69.853s26.356,69.853 58.869,69.853c32.512,0 58.869-31.274 58.869-69.853s-26.357-69.853-58.869-69.853zm0,100.774c-15.67,0-28.418-13.871-28.418-30.922s12.748-30.922 28.418-30.922 28.418,13.871 28.418,30.922-12.748,30.922-28.418,30.922z"/>
    <ellipse cx="134.521" cy="154.109" rx="13.418" ry="15.922"/>
    <path d="M154.587,49.216c0-3.166-2.566-5.732-5.732-5.732h-2.514v18.39h8.246V49.216z"/>
    <path d="m180.418,33.583v4.802c0,2.816-2.283,5.099-5.099,5.099-3.166,0-5.732,2.566-5.732,5.732v12.658h29.632v-35.435c0-14.849-12.241-26.838-27.182-26.429-14.401,0.395-25.696,12.572-25.696,26.979v1.495h28.977c2.817,0 5.1,2.283 5.1,5.099z"/>
  </g>
</svg>